<svg xmlns="http://www.w3.org/2000/svg" xmlns:xlink="http://www.w3.org/1999/xlink" contentStyleType="text/css" height="340px" preserveAspectRatio="none" style="width:523px;height:340px;background:#FFFFFF;" version="1.1" viewBox="0 0 523 340" width="523px" zoomAndPan="magnify"><defs/><g><!--cluster gcgcg--><g id="cluster_gcgcg"><path d="M8.5,6 L57.5,6 A3.75,3.75 0 0 1 60,8.5 L67,28.2969 L513.5,28.2969 A2.5,2.5 0 0 1 516,30.7969 L516,330.66 A2.5,2.5 0 0 1 513.5,333.16 L8.5,333.16 A2.5,2.5 0 0 1 6,330.66 L6,8.5 A2.5,2.5 0 0 1 8.5,6 " fill="none" style="stroke:#000000;stroke-width:1.5;"/><line style="stroke:#000000;stroke-width:1.5;" x1="6" x2="67" y1="28.2969" y2="28.2969"/><text fill="#000000" font-family="sans-serif" font-size="14" font-weight="bold" lengthAdjust="spacing" textLength="48" x="10" y="20.9951">gcgcg</text></g><!--class EditorVetorial--><g id="elem_EditorVetorial"><rect codeLine="2" fill="#F1F1F1" height="276.1563" id="EditorVetorial" rx="2.5" ry="2.5" style="stroke:#181818;stroke-width:0.5;" width="477" x="22.5" y="41"/><ellipse cx="211.25" cy="57" fill="#ADD1B2" rx="11" ry="11" style="stroke:#181818;stroke-width:1.0;"/><path d="M214.2188,62.6406 Q213.6406,62.9375 213,63.0781 Q212.3594,63.2344 211.6563,63.2344 Q209.1563,63.2344 207.8281,61.5938 Q206.5156,59.9375 206.5156,56.8125 Q206.5156,53.6875 207.8281,52.0313 Q209.1563,50.375 211.6563,50.375 Q212.3594,50.375 213,50.5313 Q213.6563,50.6875 214.2188,50.9844 L214.2188,53.7031 Q213.5938,53.125 213,52.8594 Q212.4063,52.5781 211.7813,52.5781 Q210.4375,52.5781 209.75,53.6563 Q209.0625,54.7188 209.0625,56.8125 Q209.0625,58.9063 209.75,59.9844 Q210.4375,61.0469 211.7813,61.0469 Q212.4063,61.0469 213,60.7813 Q213.5938,60.5 214.2188,59.9219 L214.2188,62.6406 Z " fill="#000000"/><text fill="#000000" font-family="sans-serif" font-size="14" lengthAdjust="spacing" textLength="91" x="231.75" y="61.8467">EditorVetorial</text><line style="stroke:#181818;stroke-width:0.5;" x1="23.5" x2="498.5" y1="73" y2="73"/><rect fill="none" height="6" style="stroke:#C82930;stroke-width:1.0;" width="6" x="30.5" y="83.6484"/><text fill="#000000" font-family="sans-serif" font-size="14" lengthAdjust="spacing" textLength="179" x="42.5" y="89.9951">List&lt;Poligono&gt; poligonos</text><rect fill="none" height="6" style="stroke:#C82930;stroke-width:1.0;" width="6" x="30.5" y="99.9453"/><text fill="#000000" font-family="sans-serif" font-size="14" lengthAdjust="spacing" textLength="194" x="42.5" y="106.292">int idxPoliogonoSelecionado</text><rect fill="none" height="6" style="stroke:#C82930;stroke-width:1.0;" width="6" x="30.5" y="116.2422"/><text fill="#000000" font-family="sans-serif" font-size="14" lengthAdjust="spacing" textLength="166" x="42.5" y="122.5889">int idxPoligonoAlterando</text><line style="stroke:#181818;stroke-width:0.5;" x1="23.5" x2="498.5" y1="129.8906" y2="129.8906"/><ellipse cx="33.5" cy="143.5391" fill="#84BE84" rx="3" ry="3" style="stroke:#038048;stroke-width:1.0;"/><text fill="#000000" font-family="sans-serif" font-size="14" lengthAdjust="spacing" textLength="312" x="42.5" y="146.8857">EditorVetorial(Objeto _paiRef, ref char _rotulo)</text><ellipse cx="33.5" cy="159.8359" fill="#84BE84" rx="3" ry="3" style="stroke:#038048;stroke-width:1.0;"/><text fill="#000000" font-family="sans-serif" font-size="14" lengthAdjust="spacing" textLength="278" x="42.5" y="163.1826">Poligono GetPoligonoAtualSelecionado()</text><ellipse cx="33.5" cy="176.1328" fill="#84BE84" rx="3" ry="3" style="stroke:#038048;stroke-width:1.0;"/><text fill="#000000" font-family="sans-serif" font-size="14" lengthAdjust="spacing" textLength="259" x="42.5" y="179.4795">Poligono GetPoligonoAtualAlterando()</text><ellipse cx="33.5" cy="192.4297" fill="#84BE84" rx="3" ry="3" style="stroke:#038048;stroke-width:1.0;"/><text fill="#000000" font-family="sans-serif" font-size="14" lengthAdjust="spacing" textLength="296" x="42.5" y="195.7764">void AdicionarPoligono(Poligono _poligono)</text><ellipse cx="33.5" cy="208.7266" fill="#84BE84" rx="3" ry="3" style="stroke:#038048;stroke-width:1.0;"/><text fill="#000000" font-family="sans-serif" font-size="14" lengthAdjust="spacing" textLength="436" x="42.5" y="212.0732">void AlterarPontoPoligonoAtual(int idxPosicao, Ponto4D _ponto)</text><ellipse cx="33.5" cy="225.0234" fill="#84BE84" rx="3" ry="3" style="stroke:#038048;stroke-width:1.0;"/><text fill="#000000" font-family="sans-serif" font-size="14" lengthAdjust="spacing" textLength="353" x="42.5" y="228.3701">void AdicionarPontoPoligonoAtual(Ponto4D _ponto)</text><ellipse cx="33.5" cy="241.3203" fill="#84BE84" rx="3" ry="3" style="stroke:#038048;stroke-width:1.0;"/><text fill="#000000" font-family="sans-serif" font-size="14" lengthAdjust="spacing" textLength="431" x="42.5" y="244.667">void MoverVerticeMaisProximoPoligono(Ponto4D pontoMouse)</text><ellipse cx="33.5" cy="257.6172" fill="#84BE84" rx="3" ry="3" style="stroke:#038048;stroke-width:1.0;"/><text fill="#000000" font-family="sans-serif" font-size="14" lengthAdjust="spacing" textLength="451" x="42.5" y="260.9639">void RemoverVerticeMaisProximoPoligono(Ponto4D pontoMouse)</text><ellipse cx="33.5" cy="273.9141" fill="#84BE84" rx="3" ry="3" style="stroke:#038048;stroke-width:1.0;"/><text fill="#000000" font-family="sans-serif" font-size="14" lengthAdjust="spacing" textLength="164" x="42.5" y="277.2607">void RemoverPoligono()</text><ellipse cx="33.5" cy="290.2109" fill="#84BE84" rx="3" ry="3" style="stroke:#038048;stroke-width:1.0;"/><text fill="#000000" font-family="sans-serif" font-size="14" lengthAdjust="spacing" textLength="321" x="42.5" y="293.5576">void AlteraAberturaFechamentoPoligonoAtual()</text><ellipse cx="33.5" cy="306.5078" fill="#84BE84" rx="3" ry="3" style="stroke:#038048;stroke-width:1.0;"/><text fill="#000000" font-family="sans-serif" font-size="14" lengthAdjust="spacing" textLength="322" x="42.5" y="309.8545">void SelecionaPoligono(Ponto4D pontoMouse)</text></g><!--SRC=[hP5FImCn4CNl_HHpNB7UF8gmu9-BYwM2rsMQdTQHR6P9igKW_UucQpUahbeFJI0CvFtUcqmCjkGwL0GR5JPyp20ifT4vk6_OYtsbS33gmrLSL_34pjyiHFD6ZDn2TwXS9c7ZWPjT54cyUo5DYiLW8p-hegZKdYoQJ0AGoijl7HNFg_TGGjqXBsaz1qjhK6zeeRRYUoqN6Jecm2FvbEPxr5bVnR-0rEEHV2lSGDdmO6L7e4WkzJYZAJJu1SHuEGegqd0SAvGv39Bhk-WLYh_I9rOdq4gs5EPgFIkgaDt2oevRoPxnXGzq9RsZYSMIshEP9EINOPMhaD9RVA3mtIrDNZl1qYUVR6O_sty2]--></g></svg>